<?xml version="1.0" encoding="utf-8"?>
<!-- Generator: Adobe Illustrator 24.1.1, SVG Export Plug-In . SVG Version: 6.00 Build 0)  -->
<svg version="1.1" id="Layer_1" xmlns="http://www.w3.org/2000/svg" xmlns:xlink="http://www.w3.org/1999/xlink" x="0px" y="0px"
	 viewBox="0 0 1200 1200" style="enable-background:new 0 0 1200 1200;" xml:space="preserve">
<style type="text/css">
	.st0{display:none;fill:#E6E7E8;}
	.st1{opacity:0;fill:#FFFFFF;}
	.st2{fill:#05273A;}
	.st3{fill:#FFFFFF;}
</style>
<rect class="st0" width="1200" height="1200"/>
<g>
	<path class="st1" d="M683.9,640.9c27-38.4,50.1-86.4,50.1-138.3c0-74-60-134-134-134s-134,60-134,134C466,557,487,604,512.4,640.9
		H683.9z"/>
	<path class="st2" d="M479.6,578.2c-1.5,1.5-3.1,3.3-4.7,5.4c-11.8,15.5-14.2,33.6-5.3,40.4c6.8,5.2,18.1,2.3,28.3-6.2
		C491,605.5,484.7,592.2,479.6,578.2z"/>
	<path class="st2" d="M718.4,578.6c-5.4,13.6-12,26.5-19.3,38.8c10.4,8.8,22,11.8,28.8,6.6c8.9-6.8,6.6-24.9-5.3-40.4
		C721.3,581.6,719.8,580,718.4,578.6z"/>
	<path class="st2" d="M686.7,646.2h-177l-1.6-2.3c-31.5-45.7-47.4-93.2-47.4-141.3c0-76.8,62.5-139.3,139.3-139.3
		s139.3,62.5,139.3,139.3c0,45.6-17.2,93.2-51.1,141.4L686.7,646.2z M515.2,635.6h165.9c31.6-45.6,47.6-90.3,47.6-133
		c0-71-57.8-128.7-128.7-128.7s-128.7,57.8-128.7,128.7C471.3,547.7,486,592.4,515.2,635.6z"/>
	<path class="st2" d="M739.3,502.6h-10.6c0-71-57.8-128.7-128.7-128.7s-128.7,57.8-128.7,128.7h-10.6c0-76.8,62.5-139.3,139.3-139.3
		S739.3,425.8,739.3,502.6z"/>
	<g>
		<path class="st3" d="M466,502.6c0,37,30,67,67,67s67-30,67-67H466z"/>
		<path class="st2" d="M533,574.9c-39.9,0-72.3-32.4-72.3-72.3s32.4-72.3,72.3-72.3s72.3,32.4,72.3,72.3S572.9,574.9,533,574.9z
			 M533,440.9c-34,0-61.7,27.7-61.7,61.7s27.7,61.7,61.7,61.7c34,0,61.7-27.7,61.7-61.7S567,440.9,533,440.9z"/>
		<path class="st2" d="M530.9,527.9c14,0,25.3-11.3,25.3-25.3h-50.7C505.5,516.6,516.9,527.9,530.9,527.9z"/>
		<path class="st1" d="M600,502.6c0-37-30-67-67-67s-67,30-67,67H600"/>
		<path class="st2" d="M605.3,507.9H460.7v-5.3c0-39.9,32.4-72.3,72.3-72.3s72.3,32.4,72.3,72.3V507.9z M471.5,497.3h123
			c-2.7-31.6-29.2-56.4-61.5-56.4S474.2,465.7,471.5,497.3z"/>
		<path class="st3" d="M600,502.6c0,37,30,67,67,67s67-30,67-67H600z"/>
		<path class="st2" d="M667,574.9c-39.9,0-72.3-32.4-72.3-72.3s32.4-72.3,72.3-72.3c39.9,0,72.3,32.4,72.3,72.3
			S706.9,574.9,667,574.9z M667,440.9c-34,0-61.7,27.7-61.7,61.7s27.7,61.7,61.7,61.7c34,0,61.7-27.7,61.7-61.7
			S701.1,440.9,667,440.9z"/>
		<path class="st2" d="M667,527.9c14,0,25.3-11.3,25.3-25.3h-50.7C641.7,516.6,653,527.9,667,527.9z"/>
		<path class="st1" d="M600,502.6c0-37,30-67,67-67c37,0,67,30,67,67H600z"/>
		<path class="st2" d="M739.3,507.9H594.7v-5.3c0-39.9,32.4-72.3,72.3-72.3c39.9,0,72.3,32.4,72.3,72.3V507.9z M605.5,497.3h123
			c-2.7-31.6-29.2-56.4-61.5-56.4C634.8,440.9,608.2,465.7,605.5,497.3z"/>
		<polygon class="st2" points="621.7,552.3 600,574 578.3,552.3 600,520 		"/>
	</g>
	<path class="st2" d="M734,646.2H466c-2.9,0-5.3-2.4-5.3-5.3c0-2.9,2.4-5.3,5.3-5.3H734c2.9,0,5.3,2.4,5.3,5.3
		C739.3,643.8,737,646.2,734,646.2z"/>
	<g>
		<g>
			<path class="st2" d="M733.9,424.6c0,0.8-5.6,27.3-5.6,27.3l-13.9-11.7L733.9,424.6z"/>
		</g>
		<g>
			<path class="st2" d="M466.5,424.6c0,0.8,5.6,27.3,5.6,27.3l13.9-11.7L466.5,424.6z"/>
		</g>
	</g>
	<path class="st2" d="M603.3,344.7c-0.8-3-2.4-5.1-4.6-6.6c-2.1-1.6-4.6-2.8-7.2-4.9c-1.3-1-2.5-2.2-3.6-3.8c-1-1.5-1.8-3.3-2.1-5.2
		c-0.4-1.8-0.3-3.7-0.1-5.4c0.2-1.8,0.8-3.6,1.6-5.2c1.5-3.1,3.6-5.5,5.7-7.7c2.1-2.2,4.3-4.1,6.4-6c1-1,2-1.9,2.7-2.9
		c0.7-1.1,1.2-2.3,1.4-3.5c0.5-2.5-0.2-5.4-1.8-7.9c2.3,1.9,3.9,4.7,4.1,8c0.1,1.6-0.2,3.3-0.8,4.8c-0.5,1.6-1.3,3-2.1,4.3
		c-1.6,2.6-3.4,4.9-5.1,7.2c-1.6,2.3-3.2,4.5-4.1,6.6c-0.5,1.1-0.8,2.1-0.9,3.1c-0.2,1.2-0.2,2.3-0.1,3.3c0.2,2,1.2,3.8,2.9,5.8
		c1.7,1.9,4.1,3.9,5.9,6.6c0.9,1.3,1.7,2.9,2,4.5C603.8,341.6,603.8,343.2,603.3,344.7z"/>
	<g>
		<path class="st2" d="M348,826.7c2.2-10.1,12.2-18.4,22.3-18.4c6.9,0,10,3.3,10.6,3.9l-4.4,4.5c-1.8-1.8-4.5-2.8-7.5-2.8
			c-7.2,0.1-14,5.7-15.5,12.8c-1.4,6.7,1.5,12.7,10.1,12.7c3,0,6.1-1,8.7-2.8l2.4,4.5c-0.9,0.6-5.3,3.9-12.3,3.9
			C352.3,845,345.8,836.7,348,826.7z"/>
		<path class="st2" d="M406.1,820.3c6.8,0,11.2,5.5,9.7,12.3c-1.5,6.9-8.1,12.4-14.9,12.4c-6.9,0-11.2-5.5-9.8-12.4
			C392.6,825.8,399.2,820.3,406.1,820.3z M402,839.7c3.9,0,7.7-3.1,8.6-7.1c0.8-3.9-1.6-7-5.6-7c-3.9,0-7.7,3.1-8.5,7
			C395.6,836.6,398.1,839.7,402,839.7z"/>
		<path class="st2" d="M435.7,817.6c0.9-4,4-6.6,7.9-6.6h4.3l-1,4.7h-2.9c-1.7,0-2.8,0.9-3.2,2.7l-0.5,2.4h6.9l-1,4.8h-6.9l-4,19
			H430l4-19h-3.8l1-4.8h3.8L435.7,817.6z"/>
		<path class="st2" d="M463.5,817.6c0.9-4,4-6.6,7.9-6.6h4.3l-1,4.7h-2.9c-1.7,0-2.8,0.9-3.2,2.7l-0.5,2.4h6.9l-1,4.8h-6.9l-4,19
			h-5.3l4-19h-3.8l1-4.8h3.8L463.5,817.6z"/>
		<path class="st2" d="M506.3,838l1.3,4c-3.4,2.1-6.6,3-10,3c-7,0-11.2-5.4-9.8-12.4c1.4-6.8,7.7-12.3,14.6-12.3
			c6.9,0,9.9,5.1,8.5,11.7c-0.2,0.9-0.4,1.7-0.6,2.5h-17c0,0-0.1,0-0.2,0.1c0,3.2,2.4,5.3,5.9,5.3C501.4,840,503.8,839.3,506.3,838z
			 M494,830.3c0,0,0,0.1,0.1,0.1h11.4c0.1,0,0.2,0,0.2,0c0.5-2.3-0.9-5.2-4.6-5.2C498.1,825.2,494.5,828,494,830.3z"/>
		<path class="st2" d="M544,838l1.3,4c-3.4,2.1-6.6,3-10,3c-7,0-11.2-5.4-9.8-12.4c1.4-6.8,7.7-12.3,14.6-12.3
			c6.9,0,9.9,5.1,8.5,11.7c-0.2,0.9-0.4,1.7-0.6,2.5h-17c0,0-0.1,0-0.2,0.1c0,3.2,2.4,5.3,5.9,5.3C539,840,541.5,839.3,544,838z
			 M531.7,830.3c0,0,0,0.1,0.1,0.1h11.4c0.1,0,0.2,0,0.2,0c0.5-2.3-0.9-5.2-4.6-5.2C535.7,825.2,532.2,828,531.7,830.3z"/>
	</g>
	<g>
		<path class="st2" d="M655.5,844.6c-0.6-13.3-0.9-19.1-1.2-23.3c-1.6,3.4-3.6,7.5-10.9,23.3H639c-0.7-12-1.4-23.9-2.1-35.9h5.8
			l0.9,23.6c0,0.3,0,0.4,0,0.4c1.5-3,9.1-19.9,11.2-24.1h4.5l0.9,23.6c0,0.3,0,0.4,0,0.4c0,0,0.1,0,0.2-0.1l11-23.9h5.8L660,844.6
			H655.5z"/>
		<path class="st2" d="M697.4,820.3c6.8,0,11.2,5.5,9.7,12.3c-1.5,6.9-8.1,12.4-14.9,12.4c-6.9,0-11.2-5.5-9.8-12.4
			C683.8,825.8,690.5,820.3,697.4,820.3z M693.3,839.7c3.9,0,7.7-3.1,8.6-7.1c0.8-3.9-1.6-7-5.6-7s-7.7,3.1-8.5,7
			C686.9,836.6,689.4,839.7,693.3,839.7z"/>
		<path class="st2" d="M725.1,820.7h5.1l-0.3,1.4c1.5-1.1,3.2-1.7,6.2-1.8h2.4l-1.1,5.4h-2.2c-3.4,0-6.1,1.6-6.9,4.9l-3,14H720
			L725.1,820.7z"/>
		<path class="st2" d="M757.4,830.4c0,0.1,0,0.1,0.1,0.1s0.1-0.1,0.2-0.2c2.9-3.2,5.7-6.5,8.6-9.7h6.1l-9.3,10.6l-1,1.1l0.5,1.2
			l4.7,11.1h-6.1c-1.7-3.9-3-6.9-4.1-9.4c-0.2-0.5-0.3-0.8-0.4-1c0,0-0.1,0-0.1,0.2l-2.2,10.2h-5.3l7.4-34.8h5.3L757.4,830.4z"/>
		<path class="st2" d="M786.5,820.7h5.3l-5.1,23.9h-5.3L786.5,820.7z M787.6,815.4c0.3-1.4,1.8-2.6,3.3-2.6c1.4,0,2.3,1.2,2.1,2.6
			c-0.3,1.5-1.8,2.7-3.2,2.7C788.2,818.1,787.2,816.9,787.6,815.4z"/>
		<path class="st2" d="M807.6,820.7h5l-0.3,1.3c1.8-1.1,3.8-1.7,5.9-1.7c6.1,0,9.7,4.1,8.4,10.2l-3,14.1h-5.3l2.9-13.8
			c0.6-2.8-1.3-5.3-4.2-5.3c-2.8,0-5.5,1.5-6.3,5l-3,14h-5.3L807.6,820.7z"/>
		<path class="st2" d="M845,848.6c1,1.4,2.7,2.3,5,2.3c4,0,8-3.2,9-7.2l0.2-1.1c-2.3,1.4-4.8,2.3-7.6,2.3c-6.8,0-11.2-5.5-9.8-12.3
			c1.4-6.8,8.1-12.3,15-12.3c2.8,0,5.1,0.9,6.8,2.4l0.4-2h5.1l-4.7,22.3c-1.5,7.1-8.4,12.9-15.6,12.9c-3.5,0-6.5-1.4-8.2-3.8
			L845,848.6z M853,839.7c4,0,7.8-3.1,8.6-7.1c0.8-4-1.6-7.1-5.6-7.1s-7.8,3.1-8.6,7.1C846.6,836.6,849,839.7,853,839.7z"/>
	</g>
	<g>
		<path class="st2" d="M698.3,690.3h-21c-1.8,0-3.7,1.5-4.3,3.3l-9.5,31.2h-27.6l9.5-31.2c0.6-1.8-0.5-3.3-2.3-3.3h-21
			c-1.8,0-3.7,1.5-4.3,3.3l-27.5,90c-0.6,1.8,0.5,3.3,2.3,3.3h21c1.8,0,3.7-1.5,4.3-3.3l9.5-31.2H655l-9.5,31.2
			c-0.6,1.8,0.5,3.3,2.3,3.3h21c1.8,0,3.7-1.5,4.3-3.3l27.5-90C701.1,691.7,700.1,690.3,698.3,690.3z"/>
		<path class="st2" d="M891.3,690.3h-21c-1.8,0-3.7,1.5-4.3,3.3l-20.1,65.7h-27.6l20.1-65.7c0.6-1.8-0.5-3.3-2.3-3.3h-21
			c-1.8,0-3.7,1.5-4.3,3.3l-20.1,65.7h0l-1.4,4.7c-3.9,12.6,3.2,22.8,15.8,22.8h37c12.6,0,25.9-10.2,29.8-22.8l1.4-4.7l0,0
			l20.1-65.7C894.1,691.7,893.1,690.3,891.3,690.3z"/>
		<path class="st2" d="M775.2,690.5h-2v0h-31.7v0h-3.3c-12.6,0-25.9,10.2-29.8,22.8l-15.5,50.8c-3.9,12.6,3.2,22.8,15.8,22.8h4.7v0
			H741v0h4.7c12.6,0,25.9-10.2,29.8-22.8l15.5-50.8C794.9,700.8,787.8,690.5,775.2,690.5z M721.8,759.5l12.6-41.3H762l-12.6,41.3
			H721.8z"/>
		<path class="st2" d="M988.6,690.3H939v0h-7c-12.6,0-25.9,10.2-29.8,22.8l-5,16.4c-3.9,12.6,3.2,22.8,15.8,22.8h4.7h2.3h25.3
			l-2.1,6.9h-51.9c-1.8,0-3.7,1.5-4.3,3.3l-6.4,21c-0.6,1.8,0.5,3.3,2.3,3.3h51.9h0h4.7c12.6,0,25.9-10.2,29.8-22.8l2.7-9l2.3-7.4
			c3.9-12.6-3.2-22.8-15.8-22.8h-4.7v0h-25.3l2.1-6.9h49.6c1.8,0,3.7-1.5,4.3-3.3l6.4-21C991.4,691.7,990.4,690.3,988.6,690.3z"/>
		<path class="st2" d="M227.9,690.3h-53.3v0h-14.7c-7.1,0-14.6,5.8-16.8,12.9l-21.6,70.8c-2.2,7.1,1.8,12.9,8.9,12.9H142v0h56.4
			c1,0,2.1-0.8,2.4-1.8l7.3-23.9c0.3-1-0.3-1.8-1.3-1.8h-48.2l12.6-41.3h48.2c1,0,2.1-0.8,2.4-1.8l7.3-23.9
			C229.5,691.1,228.9,690.3,227.9,690.3z"/>
		<path class="st2" d="M508.1,690.3h-40.8v0h-18c-7.1,0-14.6,5.8-16.8,12.9l-21.6,70.8c-2.2,7.1,1.8,12.9,8.9,12.9h14.7v0h44.1
			c1,0,2.1-0.8,2.4-1.8l7.3-23.9c0.3-1-0.3-1.8-1.3-1.8h-40.8l2.1-6.9h29.3c1,0,2.1-0.8,2.4-1.8l7.3-23.9c0.3-1-0.3-1.8-1.3-1.8
			h-29.3l2.1-6.9h40.8c1,0,2.1-0.8,2.4-1.8l7.3-23.9C509.7,691.1,509.2,690.3,508.1,690.3z"/>
		<path class="st2" d="M1077.8,690.3H1037v0h-18c-7.1,0-14.6,5.8-16.8,12.9l-21.6,70.8c-2.2,7.1,1.8,12.9,8.9,12.9h14.7v0h44.1
			c1,0,2.1-0.8,2.4-1.8l7.3-23.9c0.3-1-0.3-1.8-1.3-1.8h-40.8l2.1-6.9h29.3c1,0,2.1-0.8,2.4-1.8l7.3-23.9c0.3-1-0.3-1.8-1.3-1.8
			h-29.3l2.1-6.9h40.8c1,0,2.1-0.8,2.4-1.8l7.3-23.9C1079.4,691.1,1078.8,690.3,1077.8,690.3z"/>
		<path class="st2" d="M587.4,746.3l10.3-33.7c3.9-11-3.5-22.4-15.4-22.4h-14.7l9.4,0h-27.6v0h-25.7c-1,0-2.1,0.8-2.4,1.8
			l-28.4,92.8c-0.3,1,0.3,1.8,1.3,1.8h23.9c1,0,2.1-0.8,2.4-1.8l7.9-25.7h7.5l44.3,85.4h37.6l-54.4-85.4h7.2
			C577.7,759.2,585.3,753.4,587.4,746.3z M541,717.8h27.6l-4.2,13.8h-27.6L541,717.8z"/>
		<g>
			<g>
				<g>
					<path class="st2" d="M226.4,744.1l3.3-10.7c3.2,0,6-1,8.2-2.9c2.2-1.9,4.3-6.1,6.3-12.7c1.5-5,2.9-8.7,4-11.1
						c1.1-2.4,2.6-4.4,4.5-6.1c1.9-1.6,4.1-2.8,6.6-3.5c2.5-0.7,5.8-1.1,9.9-1.1h2.4l-3.3,10.6c-4.3,0-7,0.4-8.1,1.3
						c-1.1,0.9-2.1,2.6-2.9,5.2c-2.4,7.1-4,11.7-4.9,13.9c-0.9,2.1-2.2,4.2-3.8,6.1c-1.6,1.9-4.1,3.8-7.4,5.6c2.1,1.6,3.5,3.5,4,5.7
						c0.5,2.2,0.2,5.4-0.8,9.6l-3.3,12.9c-0.1,1.2,0.2,2.2,1,2.8c0.8,0.6,3,1,6.6,1l-3.3,10.7H243c-4.7,0-8.2-0.5-10.5-1.6
						c-2.2-1.1-3.6-2.9-4-5.3c-0.4-2.5,0.2-6.4,1.9-11.9c1.9-6.1,2.8-9.9,2.9-11.6c0.1-1.7-0.2-3.2-1-4.6
						C231.7,745,229.6,744.2,226.4,744.1z"/>
					<path class="st2" d="M247.7,784.7H243c-5.3,0-9.2-0.6-11.9-1.9c-3.2-1.5-5.2-4.2-5.7-7.6c-0.5-3,0.2-7.3,2-13.4
						c2.3-7.6,2.7-10.1,2.8-10.9c0.1-1.1-0.1-2-0.6-2.9c-0.1-0.1-0.9-0.6-3.4-0.7l-4.1-0.1l5.1-16.8l2.3,0c2.5,0,4.5-0.7,6.2-2.1
						c1-0.8,3-3.4,5.4-11.2c1.6-5.2,2.9-9,4.1-11.5c1.3-2.8,3.1-5.2,5.4-7.2c2.3-1.9,4.9-3.3,7.7-4.2c2.8-0.8,6.3-1.2,10.8-1.2h6.6
						l-5.2,16.9h-2.3c-4.7,0-6,0.6-6.2,0.7c-0.3,0.2-1,1.1-1.9,3.7c-2.4,7.3-4.1,11.9-5,14.2c-1.1,2.4-2.5,4.7-4.3,6.9
						c-1.2,1.5-2.8,2.9-4.8,4.2c1,1.3,1.6,2.8,2,4.4c0.6,2.8,0.4,6.4-0.8,11.1l-3.2,12.5c0.6,0.1,1.9,0.3,4.5,0.3h4.2L247.7,784.7z
						 M230.5,741.5c1.8,0.5,3.7,1.5,4.7,3.4c1,1.9,1.5,4.1,1.3,6.3c-0.1,1.3-0.5,3.9-3.1,12.3c-2,6.6-2,9.4-1.8,10.5
						c0.2,1.5,0.9,2.4,2.2,3c1.2,0.6,3.8,1.3,9.1,1.3l1.4-4.6c-2.1-0.2-3.4-0.7-4.4-1.4c-1.7-1.3-2.5-3.3-2.2-5.6l0-0.2l3.4-13.2
						c1.2-4.6,1.1-6.9,0.8-8.1c-0.3-1.5-1.3-2.8-2.8-3.9l-4-3l4.4-2.3c3-1.6,5.1-3.2,6.5-4.8c1.4-1.7,2.6-3.5,3.4-5.4
						c0.9-2,2.5-6.6,4.8-13.6c1.1-3.2,2.4-5.4,4-6.7c1.5-1.2,3.9-1.8,7.7-2l1.3-4.4c-2.9,0.1-5.3,0.4-7.1,0.9
						c-2,0.6-3.9,1.6-5.4,2.9c-1.6,1.3-2.8,3-3.7,5c-1,2.3-2.3,5.9-3.8,10.8c-2.2,7.3-4.6,11.8-7.3,14.2c-2.2,1.9-4.8,3-7.8,3.5
						L230.5,741.5z"/>
				</g>
				<g>
					<path class="st2" d="M247,783.7H243c-5.1,0-8.9-0.6-11.4-1.8c-2.9-1.4-4.7-3.8-5.2-6.9c-0.5-2.8,0.2-7.1,2-12.9
						c2.2-7.3,2.8-10.1,2.8-11.1c0.1-1.3-0.2-2.4-0.7-3.5c-0.2-0.5-1.5-1-4.2-1.1l-2.9-0.1l4.6-15l1.6,0c2.7,0,4.9-0.8,6.8-2.3
						c1.3-1.1,3.3-4,5.7-11.7c1.6-5.2,2.9-8.9,4.1-11.4c1.2-2.7,3-5,5.1-6.8c2.2-1.8,4.6-3.2,7.4-4c2.7-0.8,6.1-1.2,10.5-1.2h5.3
						l-4.6,15h-1.6c-5.5,0-6.6,0.8-6.8,0.9c-0.4,0.3-1.3,1.3-2.2,4.2c-2.4,7.3-4,11.9-5,14.1c-1,2.3-2.4,4.6-4.2,6.6
						c-1.3,1.6-3.1,3.1-5.4,4.6c1.2,1.4,2.1,3.1,2.5,4.8c0.6,2.6,0.3,6.1-0.8,10.7l-3.2,12.8c0,0.5,0.1,0.6,0.2,0.7
						c0.2,0.1,1.2,0.5,5.3,0.5h3L247,783.7z M229.3,742.2c2.5,0.5,4.2,1.5,5.1,3.2c0.9,1.8,1.4,3.7,1.2,5.8c-0.1,1.2-0.5,3.8-3,12.1
						c-2,6.4-2.1,9.5-1.8,10.9c0.3,1.7,1.2,2.9,2.8,3.7c1.9,0.9,5.1,1.4,9.5,1.4h0.7l1.9-6.4c-3.2-0.2-4.3-0.8-5.1-1.3
						c-1-0.8-2.1-2.2-1.9-4.8l0-0.2l3.3-13.1c1.2-4.8,1.1-7.3,0.8-8.6c-0.4-1.7-1.4-3.2-3.2-4.5l-2.8-2.1l3.1-1.6
						c3.1-1.6,5.3-3.3,6.8-5c1.5-1.8,2.7-3.7,3.5-5.6c0.9-2.1,2.5-6.7,4.9-13.7c1-3,2.2-5.1,3.7-6.2c1.4-1.1,3.9-1.7,7.9-1.8
						l1.9-6.3c-3.6,0-6.5,0.4-8.7,1c-2.2,0.6-4.1,1.7-5.8,3.1c-1.7,1.4-3,3.2-4,5.3c-1.1,2.3-2.4,6-3.9,10.9
						c-2.2,7.1-4.5,11.6-7,13.7c-2.2,1.9-4.9,3-7.9,3.3L229.3,742.2z"/>
					<path class="st2" d="M249.8,785.3c-0.3,0.9-1.2,1.6-2.2,1.6H243c-5.6,0-9.8-0.7-12.8-2.2c-3.8-1.8-6.3-5.1-6.9-9.3
						c-0.6-3.4,0.1-7.9,2.1-14.4c2.4-7.9,2.7-9.9,2.7-10.4c0-0.4,0-0.8-0.1-1.1c-0.4-0.1-0.9-0.2-1.8-0.2l-4-0.1
						c-1.5-0.1-2.5-1.5-2.1-2.9l4.9-16.1c0.4-1.3,1.6-2.2,3-2.2l1.6,0c2,0,3.5-0.5,4.8-1.6c0.5-0.4,2.3-2.4,4.7-10.2
						c1.6-5.3,3-9.2,4.2-11.8c1.4-3.1,3.4-5.8,5.9-7.9c2.5-2.1,5.4-3.7,8.6-4.6c3-0.9,6.7-1.3,11.4-1.3h6.5c1.5,0,2.6,1.5,2.2,2.9
						l-5.1,16.8c-0.3,0.9-1.2,1.6-2.2,1.6h-2.3c-2.9,0-4.3,0.2-4.9,0.4c-0.2,0.3-0.6,1.1-1.1,2.5c-2.4,7.4-4.1,12-5.1,14.4
						c-1.1,2.6-2.7,5.1-4.6,7.4c-1,1.2-2.2,2.3-3.5,3.4c0.5,1,0.9,2.1,1.2,3.3c0.7,3.1,0.4,7.1-0.9,12.2l-2.5,10c0.5,0,1.1,0,1.8,0
						h4.2c1.5,0,2.6,1.5,2.2,2.9L249.8,785.3z M228.5,749.8L228.5,749.8L228.5,749.8z M263,712.5L263,712.5L263,712.5z"/>
				</g>
			</g>
			<g>
				<g>
					<path class="st2" d="M301.8,746.4c-1.6,1.4-2.9,3-3.8,4.6c-0.9,1.7-2.3,5.6-4.2,11.6c-1.7,5.5-3.5,9.5-5.4,11.9
						c-1.9,2.5-4.3,4.2-7.2,5.3c-2.9,1.1-6.7,1.6-11.5,1.6h-2.3l3.3-10.7c3.6,0,6-0.3,7.2-1c1.2-0.6,2.1-1.6,2.8-2.8l4.6-12.9
						c1.5-4.2,3.2-7.4,5.1-9.6c1.9-2.2,4.4-4.1,7.5-5.7c-2.2-1.8-3.6-3.6-4-5.6c-0.4-1.9-0.5-4-0.1-6.1c0.4-2.1,1.6-6.8,3.6-13.9
						c0.7-2.6,0.8-4.3,0.2-5.2c-0.6-0.9-3-1.3-7.3-1.3l3.3-10.6h2.4c4.1,0,7.2,0.4,9.2,1.1c2,0.7,3.5,1.9,4.4,3.5
						c0.9,1.6,1.2,3.7,0.8,6.1c-0.4,2.4-1.3,6.1-2.9,11.1c-2,6.6-2.5,10.8-1.4,12.7c1.1,1.9,3.2,2.8,6.4,2.9l-3.3,10.7
						C305.9,744.2,303.5,745,301.8,746.4z"/>
					<path class="st2" d="M269.7,784.7h-6.6l5.2-17h2.3c4.5,0,5.6-0.5,5.8-0.6c0.6-0.3,1-0.7,1.4-1.3l4.5-12.7
						c1.6-4.6,3.5-8,5.6-10.6c1.3-1.6,3-3,4.9-4.4c-1-1.4-1.7-2.8-2-4.3c-0.5-2.3-0.6-4.8-0.1-7.3c0.4-2.3,1.6-6.9,3.6-14.2
						c0.3-1.1,0.4-1.8,0.5-2.3c-0.7-0.1-2.1-0.3-4.5-0.3H286l5.2-16.9h4.7c4.5,0,7.9,0.4,10.3,1.3c2.8,1,4.8,2.6,6.1,4.9
						c1.3,2.3,1.7,5,1.2,8.1c-0.4,2.6-1.4,6.4-3,11.6c-2.5,8.3-1.7,10.2-1.7,10.3c0.6,1,2.3,1.2,3.7,1.3l4.2,0l-5.1,16.8l-2.2,0.1
						c-2.5,0.1-4.4,0.6-5.5,1.5l0,0c-1.3,1.2-2.4,2.4-3.1,3.8c-0.6,1-1.7,3.8-3.9,11c-1.8,5.9-3.7,10.1-5.9,12.9
						c-2.3,2.9-5.2,5.1-8.6,6.3C279,784.1,274.9,784.7,269.7,784.7z M273,774l-1.3,4.4c3.5-0.1,6.3-0.6,8.4-1.4
						c2.4-0.9,4.3-2.3,5.8-4.3c1.7-2.1,3.3-5.8,4.9-10.9c2.6-8.4,3.8-11,4.4-12.2c1.1-2,2.6-3.9,4.5-5.5l0,0
						c1.7-1.5,4.1-2.5,7.1-2.9l1.6-5.1c-2.8-0.8-4.3-2.5-5.1-3.9c-1.5-2.8-1.2-7.4,1.2-15.2c1.5-4.8,2.4-8.4,2.7-10.7
						c0.3-1.7,0.1-3.1-0.5-4c-0.5-1-1.4-1.7-2.8-2.1c-1.2-0.4-3.5-0.9-8.2-0.9h0l-1.4,4.5c3.1,0.3,4.8,1.1,5.8,2.6
						c1.1,1.8,1.2,4.1,0.1,7.8c-2,7-3.1,11.5-3.5,13.6c-0.3,1.7-0.3,3.4,0.1,4.9c0.3,1.2,1.2,2.5,2.9,3.8l3.8,3l-4.3,2.2
						c-2.7,1.4-4.9,3.1-6.5,5c-1.6,1.9-3.1,4.8-4.5,8.6l-4.7,13.2l-0.1,0.2c-0.9,1.8-2.3,3.2-4.1,4.2C278,773.4,276,773.8,273,774z
						 M295.5,710.3L295.5,710.3L295.5,710.3z M294.8,709.4C294.8,709.4,294.8,709.4,294.8,709.4
						C294.8,709.4,294.8,709.4,294.8,709.4z"/>
				</g>
				<g>
					<path class="st2" d="M269.7,783.7h-5.3l4.6-15.1h1.6c4.4,0,5.8-0.5,6.2-0.7c0.8-0.4,1.4-1,1.8-1.8l4.6-12.8
						c1.6-4.5,3.4-7.8,5.4-10.3c1.5-1.8,3.3-3.4,5.5-4.8c-1.3-1.5-2.1-3-2.5-4.7c-0.5-2.2-0.5-4.6-0.1-7c0.4-2.2,1.6-6.8,3.6-14.1
						c0.5-1.9,0.6-2.9,0.5-3.2c-0.5-0.2-1.9-0.5-5.5-0.5h-3l4.6-15h4c4.4,0,7.7,0.4,10,1.2c2.5,0.9,4.4,2.4,5.6,4.5
						c1.2,2.1,1.5,4.6,1.1,7.5c-0.4,2.5-1.3,6.3-2.9,11.5c-2.6,8.5-1.8,10.6-1.6,11c0.6,1.1,2.2,1.7,4.5,1.7l2.9,0l-5.4,15l-0.8,0.1
						c-2.8,0.1-4.8,0.7-6.1,1.8h0c-1.4,1.2-2.5,2.6-3.3,4.1c-0.6,1.1-1.8,3.9-4,11.2c-1.8,5.8-3.7,9.9-5.7,12.6
						c-2.2,2.8-4.9,4.8-8.2,6C278.9,783.1,274.7,783.7,269.7,783.7z M272.3,773l-1.9,6.3c4.2,0,7.5-0.5,10.1-1.5
						c2.5-0.9,4.6-2.5,6.3-4.6c1.7-2.2,3.4-6,5-11.2c1.9-6.3,3.3-10.2,4.4-12c1.1-1.9,2.5-3.7,4.3-5.2l0,0c1.7-1.5,4.1-2.4,7.2-2.7
						l2-6.7c-2.5-0.5-4.4-1.8-5.5-3.7c-1.4-2.5-1-7,1.3-14.4c1.5-4.9,2.4-8.5,2.8-10.8c0.3-1.9,0.1-3.5-0.6-4.7
						c-0.7-1.2-1.7-2-3.3-2.6c-1.8-0.6-4.6-1-8.5-1h-0.7l-1.9,6.3c3.5,0.2,5.3,0.9,6.2,2.3c1,1.5,1,3.7,0,7c-2,7-3.1,11.6-3.5,13.7
						c-0.3,1.8-0.3,3.6,0.1,5.3c0.3,1.4,1.4,2.9,3.2,4.3l2.7,2.1l-3,1.6c-2.9,1.5-5.2,3.2-6.8,5.2c-1.7,2-3.3,5-4.7,8.9l-4.7,13.1
						l-0.1,0.1c-0.9,1.6-2.1,2.9-3.7,3.8C277.6,772.6,275.5,772.9,272.3,773z M296,709.5L296,709.5L296,709.5z"/>
					<path class="st2" d="M269.7,786.9h-6.5c-1.5,0-2.6-1.5-2.2-2.9l5.2-16.9c0.3-0.9,1.2-1.6,2.2-1.6h2.3c3.4,0,4.6-0.3,4.8-0.4
						c0.1-0.1,0.2-0.2,0.3-0.3l4.5-12.5c1.7-4.8,3.7-8.5,6-11.3c1-1.2,2.2-2.4,3.6-3.5c-0.6-1-1-2.1-1.2-3.2
						c-0.6-2.6-0.6-5.4-0.1-8.2c0.4-2.3,1.6-6.8,3.6-14.1c-0.5,0-1.1,0-1.9,0h-4.2c-1.5,0-2.6-1.5-2.2-2.9l5.1-16.8
						c0.3-0.9,1.2-1.6,2.2-1.6h4.6c4.8,0,8.4,0.5,11,1.4c3.3,1.2,5.7,3.2,7.3,5.9c1.5,2.7,2,5.9,1.5,9.5c-0.4,2.7-1.4,6.6-3,11.9
						c-1.6,5.2-1.8,7.6-1.7,8.5c0.3,0.1,0.8,0.2,1.7,0.2l4.2,0c1.6,0,2.6,1.6,2.1,3l-5.8,16.2c-0.4,1.2-1.5,2-2.8,2.1l-0.9,0.1
						c-2.9,0.1-3.9,0.8-4.1,1c-1.1,1-2,2.1-2.7,3.2c-0.3,0.6-1.4,2.9-3.7,10.6c-1.9,6.2-3.9,10.6-6.3,13.6c-2.5,3.2-5.7,5.6-9.6,7.1
						C279.6,786.2,275.1,786.9,269.7,786.9z M310.9,728.4L310.9,728.4L310.9,728.4z M310.6,727.8L310.6,727.8L310.6,727.8z"/>
				</g>
			</g>
		</g>
		<path class="st2" d="M389,691l-44.5,0c-1,0-2.1,0.8-2.4,1.8l-5.4,17.6l-1.9,6.1l-21.4,70.2h24.4h2.9H369h0
			c14.9-0.4,30.3-12.5,34.9-27.3l10.4-34.2C420.8,703.8,411.6,691,389,691z M349.2,759.3l12.5-41h14.6c7,0,11,5.7,8.8,12.7
			l-4.7,15.5c-2.2,7-9.6,12.7-16.6,12.7H349.2z"/>
	</g>
</g>
</svg>
